<svg xmlns="http://www.w3.org/2000/svg" xmlns:xlink="http://www.w3.org/1999/xlink" width="1600" height="840" viewBox="0 0 1600 840"><rect width="1600" height="840" fill="#f7f7f4"/><text x="60" y="78" font-family="system-ui,-apple-system,'Segoe UI',Helvetica,Arial,sans-serif" font-size="40" font-weight="700" fill="#161616">TenStartup — Logo Concepts</text><text x="60" y="116" font-family="system-ui,-apple-system,'Segoe UI',Helvetica,Arial,sans-serif" font-size="20" fill="#6b6b6b">Concepts for review — pick a direction (or tell me what you like in each).</text><rect x="60" y="150" width="474.667" height="630" rx="18" fill="#fff" stroke="#161616" stroke-width="2"/><g><svg xmlns="http://www.w3.org/2000/svg" viewBox="0 0 256 256" x="90" y="190" width="414.667" height="300" preserveAspectRatio="xMidYMid meet">
  <title>TenStartup — Concept A: The Precision Node</title>
  <!-- Top Crossbar: Interlocking Wing Prism -->
  <path d="M 36 68 
           L 128 36 
           L 220 68 
           L 196 104 
           L 148 88 
           L 148 116 
           L 108 116 
           L 108 88 
           L 60 104 Z" 
        fill="#38BDF8" />
  
  <!-- Vertical Pillar & Upward Growth Keystone -->
  <path d="M 108 128 
           L 148 128 
           L 148 200 
           L 128 220 
           L 108 200 Z" 
        fill="#10B981" />

  <!-- Center Verification Spark Node -->
  <polygon points="128,96 138,108 128,120 118,108" fill="#F8FAFC" />
</svg>
</g><g><svg xmlns="http://www.w3.org/2000/svg" viewBox="0 0 256 256" x="90" y="516" width="64" height="64" preserveAspectRatio="xMidYMid meet">
  <title>TenStartup — Concept A: The Precision Node</title>
  <!-- Top Crossbar: Interlocking Wing Prism -->
  <path d="M 36 68 
           L 128 36 
           L 220 68 
           L 196 104 
           L 148 88 
           L 148 116 
           L 108 116 
           L 108 88 
           L 60 104 Z" 
        fill="#38BDF8" />
  
  <!-- Vertical Pillar & Upward Growth Keystone -->
  <path d="M 108 128 
           L 148 128 
           L 148 200 
           L 128 220 
           L 108 200 Z" 
        fill="#10B981" />

  <!-- Center Verification Spark Node -->
  <polygon points="128,96 138,108 128,120 118,108" fill="#F8FAFC" />
</svg>
</g><text x="122" y="600" font-family="system-ui,-apple-system,'Segoe UI',Helvetica,Arial,sans-serif" font-size="12" fill="#8a8a8a" text-anchor="middle">64px</text><g><svg xmlns="http://www.w3.org/2000/svg" viewBox="0 0 256 256" x="180" y="548" width="32" height="32" preserveAspectRatio="xMidYMid meet">
  <title>TenStartup — Concept A: The Precision Node</title>
  <!-- Top Crossbar: Interlocking Wing Prism -->
  <path d="M 36 68 
           L 128 36 
           L 220 68 
           L 196 104 
           L 148 88 
           L 148 116 
           L 108 116 
           L 108 88 
           L 60 104 Z" 
        fill="#38BDF8" />
  
  <!-- Vertical Pillar & Upward Growth Keystone -->
  <path d="M 108 128 
           L 148 128 
           L 148 200 
           L 128 220 
           L 108 200 Z" 
        fill="#10B981" />

  <!-- Center Verification Spark Node -->
  <polygon points="128,96 138,108 128,120 118,108" fill="#F8FAFC" />
</svg>
</g><text x="196" y="600" font-family="system-ui,-apple-system,'Segoe UI',Helvetica,Arial,sans-serif" font-size="12" fill="#8a8a8a" text-anchor="middle">32px</text><g><svg xmlns="http://www.w3.org/2000/svg" viewBox="0 0 256 256" x="238" y="564" width="16" height="16" preserveAspectRatio="xMidYMid meet">
  <title>TenStartup — Concept A: The Precision Node</title>
  <!-- Top Crossbar: Interlocking Wing Prism -->
  <path d="M 36 68 
           L 128 36 
           L 220 68 
           L 196 104 
           L 148 88 
           L 148 116 
           L 108 116 
           L 108 88 
           L 60 104 Z" 
        fill="#38BDF8" />
  
  <!-- Vertical Pillar & Upward Growth Keystone -->
  <path d="M 108 128 
           L 148 128 
           L 148 200 
           L 128 220 
           L 108 200 Z" 
        fill="#10B981" />

  <!-- Center Verification Spark Node -->
  <polygon points="128,96 138,108 128,120 118,108" fill="#F8FAFC" />
</svg>
</g><text x="246" y="600" font-family="system-ui,-apple-system,'Segoe UI',Helvetica,Arial,sans-serif" font-size="12" fill="#8a8a8a" text-anchor="middle">16px</text><text x="90.0" y="636" font-family="system-ui,-apple-system,'Segoe UI',Helvetica,Arial,sans-serif" font-size="26" font-weight="700" fill="#161616">A · The Precision Node</text><text x="90.0" y="664" font-family="system-ui,-apple-system,'Segoe UI',Helvetica,Arial,sans-serif" font-size="15" font-weight="700" fill="#161616" letter-spacing="1.5">RECOMMENDED</text><text x="90.0" y="698" font-family="system-ui,-apple-system,'Segoe UI',Helvetica,Arial,sans-serif" font-size="19" fill="#555">Monogram T với trục suy luận AI &amp; 2 cánh</text><text x="90.0" y="724" font-family="system-ui,-apple-system,'Segoe UI',Helvetica,Arial,sans-serif" font-size="19" fill="#555">đón dữ liệu sổ cái.</text><rect x="562.667" y="150" width="474.667" height="630" rx="18" fill="#fff" stroke="#e4e4e0" stroke-width="1"/><g><svg xmlns="http://www.w3.org/2000/svg" viewBox="0 0 256 256" x="592.667" y="190" width="414.667" height="300" preserveAspectRatio="xMidYMid meet">
  <title>TenStartup — Concept B: The Verified Ledger</title>
  <!-- Left Ledger Face: Structured General Ledger Base (dx=71, dy=41 => 30.0°) -->
  <path d="M 120 45 
           L 49 86 
           L 49 170 
           L 120 211 
           L 120 145 
           L 85 125 
           L 85 105 
           L 120 125 Z" 
        fill="#38BDF8" />

  <!-- Right Ledger Face & Upward Audit Checkmark / Arrow -->
  <path d="M 136 45 
           L 136 125 
           L 171 105 
           L 171 125 
           L 136 145 
           L 136 211 
           L 207 170 
           L 207 86 Z" 
        fill="#10B981" />

  <!-- Top Monogram T Keystone -->
  <polygon points="128,34 163,54 128,74 93,54" fill="#F8FAFC" />
</svg>
</g><g><svg xmlns="http://www.w3.org/2000/svg" viewBox="0 0 256 256" x="592.667" y="516" width="64" height="64" preserveAspectRatio="xMidYMid meet">
  <title>TenStartup — Concept B: The Verified Ledger</title>
  <!-- Left Ledger Face: Structured General Ledger Base (dx=71, dy=41 => 30.0°) -->
  <path d="M 120 45 
           L 49 86 
           L 49 170 
           L 120 211 
           L 120 145 
           L 85 125 
           L 85 105 
           L 120 125 Z" 
        fill="#38BDF8" />

  <!-- Right Ledger Face & Upward Audit Checkmark / Arrow -->
  <path d="M 136 45 
           L 136 125 
           L 171 105 
           L 171 125 
           L 136 145 
           L 136 211 
           L 207 170 
           L 207 86 Z" 
        fill="#10B981" />

  <!-- Top Monogram T Keystone -->
  <polygon points="128,34 163,54 128,74 93,54" fill="#F8FAFC" />
</svg>
</g><text x="624.667" y="600" font-family="system-ui,-apple-system,'Segoe UI',Helvetica,Arial,sans-serif" font-size="12" fill="#8a8a8a" text-anchor="middle">64px</text><g><svg xmlns="http://www.w3.org/2000/svg" viewBox="0 0 256 256" x="682.667" y="548" width="32" height="32" preserveAspectRatio="xMidYMid meet">
  <title>TenStartup — Concept B: The Verified Ledger</title>
  <!-- Left Ledger Face: Structured General Ledger Base (dx=71, dy=41 => 30.0°) -->
  <path d="M 120 45 
           L 49 86 
           L 49 170 
           L 120 211 
           L 120 145 
           L 85 125 
           L 85 105 
           L 120 125 Z" 
        fill="#38BDF8" />

  <!-- Right Ledger Face & Upward Audit Checkmark / Arrow -->
  <path d="M 136 45 
           L 136 125 
           L 171 105 
           L 171 125 
           L 136 145 
           L 136 211 
           L 207 170 
           L 207 86 Z" 
        fill="#10B981" />

  <!-- Top Monogram T Keystone -->
  <polygon points="128,34 163,54 128,74 93,54" fill="#F8FAFC" />
</svg>
</g><text x="698.667" y="600" font-family="system-ui,-apple-system,'Segoe UI',Helvetica,Arial,sans-serif" font-size="12" fill="#8a8a8a" text-anchor="middle">32px</text><g><svg xmlns="http://www.w3.org/2000/svg" viewBox="0 0 256 256" x="740.667" y="564" width="16" height="16" preserveAspectRatio="xMidYMid meet">
  <title>TenStartup — Concept B: The Verified Ledger</title>
  <!-- Left Ledger Face: Structured General Ledger Base (dx=71, dy=41 => 30.0°) -->
  <path d="M 120 45 
           L 49 86 
           L 49 170 
           L 120 211 
           L 120 145 
           L 85 125 
           L 85 105 
           L 120 125 Z" 
        fill="#38BDF8" />

  <!-- Right Ledger Face & Upward Audit Checkmark / Arrow -->
  <path d="M 136 45 
           L 136 125 
           L 171 105 
           L 171 125 
           L 136 145 
           L 136 211 
           L 207 170 
           L 207 86 Z" 
        fill="#10B981" />

  <!-- Top Monogram T Keystone -->
  <polygon points="128,34 163,54 128,74 93,54" fill="#F8FAFC" />
</svg>
</g><text x="748.667" y="600" font-family="system-ui,-apple-system,'Segoe UI',Helvetica,Arial,sans-serif" font-size="12" fill="#8a8a8a" text-anchor="middle">16px</text><text x="592.6666666666667" y="636" font-family="system-ui,-apple-system,'Segoe UI',Helvetica,Arial,sans-serif" font-size="26" font-weight="700" fill="#161616">B · The Verified Ledger</text><text x="592.6666666666667" y="670" font-family="system-ui,-apple-system,'Segoe UI',Helvetica,Arial,sans-serif" font-size="19" fill="#555">Khối lập phương dữ liệu kiểm toán với vết</text><text x="592.6666666666667" y="696" font-family="system-ui,-apple-system,'Segoe UI',Helvetica,Arial,sans-serif" font-size="19" fill="#555">cắt âm chữ T bảo chứng.</text><rect x="1065.33" y="150" width="474.667" height="630" rx="18" fill="#fff" stroke="#e4e4e0" stroke-width="1"/><g><svg xmlns="http://www.w3.org/2000/svg" viewBox="0 0 256 256" x="1095.33" y="190" width="414.667" height="300" preserveAspectRatio="xMidYMid meet">
  <title>TenStartup — Concept C: Binary Nexus</title>
  <!-- The '1' Monolith Pillar: Precision Foundation (Left) -->
  <path d="M 46 86 
           L 78 54 
           L 98 54 
           L 98 202 
           L 62 202 
           L 62 96 
           L 46 96 Z" 
        fill="#38BDF8" />

  <!-- The '0' Loop / Ring: Continuous Cognitive Reasoning (Right) -->
  <path d="M 160 54 
           C 192 54 210 76 210 112 
           L 210 144 
           C 210 180 192 202 160 202 
           C 128 202 110 180 110 144 
           L 110 112 
           C 110 76 128 54 160 54 Z 
           M 160 90 
           C 146 90 142 102 142 120 
           L 142 136 
           C 142 154 146 166 160 166 
           C 174 166 178 154 178 136 
           L 178 120 
           C 178 102 174 90 160 90 Z" 
        fill="#10B981" 
        fill-rule="evenodd" />

  <!-- Connecting Quantum Bridge (Forms Monogram T) -->
  <rect x="82" y="74" width="44" height="24" rx="4" fill="#F8FAFC" />
</svg>
</g><g><svg xmlns="http://www.w3.org/2000/svg" viewBox="0 0 256 256" x="1095.33" y="516" width="64" height="64" preserveAspectRatio="xMidYMid meet">
  <title>TenStartup — Concept C: Binary Nexus</title>
  <!-- The '1' Monolith Pillar: Precision Foundation (Left) -->
  <path d="M 46 86 
           L 78 54 
           L 98 54 
           L 98 202 
           L 62 202 
           L 62 96 
           L 46 96 Z" 
        fill="#38BDF8" />

  <!-- The '0' Loop / Ring: Continuous Cognitive Reasoning (Right) -->
  <path d="M 160 54 
           C 192 54 210 76 210 112 
           L 210 144 
           C 210 180 192 202 160 202 
           C 128 202 110 180 110 144 
           L 110 112 
           C 110 76 128 54 160 54 Z 
           M 160 90 
           C 146 90 142 102 142 120 
           L 142 136 
           C 142 154 146 166 160 166 
           C 174 166 178 154 178 136 
           L 178 120 
           C 178 102 174 90 160 90 Z" 
        fill="#10B981" 
        fill-rule="evenodd" />

  <!-- Connecting Quantum Bridge (Forms Monogram T) -->
  <rect x="82" y="74" width="44" height="24" rx="4" fill="#F8FAFC" />
</svg>
</g><text x="1127.33" y="600" font-family="system-ui,-apple-system,'Segoe UI',Helvetica,Arial,sans-serif" font-size="12" fill="#8a8a8a" text-anchor="middle">64px</text><g><svg xmlns="http://www.w3.org/2000/svg" viewBox="0 0 256 256" x="1185.33" y="548" width="32" height="32" preserveAspectRatio="xMidYMid meet">
  <title>TenStartup — Concept C: Binary Nexus</title>
  <!-- The '1' Monolith Pillar: Precision Foundation (Left) -->
  <path d="M 46 86 
           L 78 54 
           L 98 54 
           L 98 202 
           L 62 202 
           L 62 96 
           L 46 96 Z" 
        fill="#38BDF8" />

  <!-- The '0' Loop / Ring: Continuous Cognitive Reasoning (Right) -->
  <path d="M 160 54 
           C 192 54 210 76 210 112 
           L 210 144 
           C 210 180 192 202 160 202 
           C 128 202 110 180 110 144 
           L 110 112 
           C 110 76 128 54 160 54 Z 
           M 160 90 
           C 146 90 142 102 142 120 
           L 142 136 
           C 142 154 146 166 160 166 
           C 174 166 178 154 178 136 
           L 178 120 
           C 178 102 174 90 160 90 Z" 
        fill="#10B981" 
        fill-rule="evenodd" />

  <!-- Connecting Quantum Bridge (Forms Monogram T) -->
  <rect x="82" y="74" width="44" height="24" rx="4" fill="#F8FAFC" />
</svg>
</g><text x="1201.33" y="600" font-family="system-ui,-apple-system,'Segoe UI',Helvetica,Arial,sans-serif" font-size="12" fill="#8a8a8a" text-anchor="middle">32px</text><g><svg xmlns="http://www.w3.org/2000/svg" viewBox="0 0 256 256" x="1243.33" y="564" width="16" height="16" preserveAspectRatio="xMidYMid meet">
  <title>TenStartup — Concept C: Binary Nexus</title>
  <!-- The '1' Monolith Pillar: Precision Foundation (Left) -->
  <path d="M 46 86 
           L 78 54 
           L 98 54 
           L 98 202 
           L 62 202 
           L 62 96 
           L 46 96 Z" 
        fill="#38BDF8" />

  <!-- The '0' Loop / Ring: Continuous Cognitive Reasoning (Right) -->
  <path d="M 160 54 
           C 192 54 210 76 210 112 
           L 210 144 
           C 210 180 192 202 160 202 
           C 128 202 110 180 110 144 
           L 110 112 
           C 110 76 128 54 160 54 Z 
           M 160 90 
           C 146 90 142 102 142 120 
           L 142 136 
           C 142 154 146 166 160 166 
           C 174 166 178 154 178 136 
           L 178 120 
           C 178 102 174 90 160 90 Z" 
        fill="#10B981" 
        fill-rule="evenodd" />

  <!-- Connecting Quantum Bridge (Forms Monogram T) -->
  <rect x="82" y="74" width="44" height="24" rx="4" fill="#F8FAFC" />
</svg>
</g><text x="1251.33" y="600" font-family="system-ui,-apple-system,'Segoe UI',Helvetica,Arial,sans-serif" font-size="12" fill="#8a8a8a" text-anchor="middle">16px</text><text x="1095.3333333333335" y="636" font-family="system-ui,-apple-system,'Segoe UI',Helvetica,Arial,sans-serif" font-size="26" font-weight="700" fill="#161616">C · Binary Nexus</text><text x="1095.3333333333335" y="670" font-family="system-ui,-apple-system,'Segoe UI',Helvetica,Arial,sans-serif" font-size="19" fill="#555">Kết hợp số 10 và chữ T theo phong cách</text><text x="1095.3333333333335" y="696" font-family="system-ui,-apple-system,'Segoe UI',Helvetica,Arial,sans-serif" font-size="19" fill="#555">monolithic hiện đại.</text></svg>
